<?xml version="1.0" encoding="UTF-8" standalone="no"?>
<!DOCTYPE svg PUBLIC "-//W3C//DTD SVG 1.1//EN" "http://www.w3.org/Graphics/SVG/1.1/DTD/svg11.dtd">
<svg width="100%" height="100%" viewBox="0 0 2732 2048" version="1.1" xmlns="http://www.w3.org/2000/svg" xmlns:xlink="http://www.w3.org/1999/xlink" xml:space="preserve" xmlns:serif="http://www.serif.com/" style="fill-rule:evenodd;clip-rule:evenodd;stroke-linecap:round;stroke-linejoin:round;stroke-miterlimit:1.5;">
    <path d="M843.44,107.233L650.755,110.839L637.981,128.033L604.2,127.521C604.2,127.521 617.718,149.748 616.325,163.155C614.932,176.562 647.845,188.103 647.845,188.103C647.845,188.103 649.755,202.679 660.55,207.032C671.345,211.385 672.218,217.218 672.218,217.218C672.218,217.218 678.911,205.79 680.748,211.907C682.993,219.385 680.755,225.091 680.755,225.091L675.755,220.581L676.143,280.186L683.579,288.875C683.579,288.875 699.243,288.854 699.905,292.762C700.567,296.671 685.682,297.655 685.682,297.655C685.682,297.655 683.965,325.206 676.85,334.237C669.735,343.269 642.991,351.844 642.991,351.844C642.991,351.844 633.951,384.695 635.777,388.966C646.881,391.952 647.676,390.626 647.676,390.626C647.676,390.626 627.337,428.374 629.834,435.586C632.331,442.798 665.839,435.886 669.259,442.032C672.679,448.178 670.225,492.431 666.693,494.461C663.161,496.492 644.144,497.203 642.328,507.373C640.512,517.544 639.422,519.36 635.548,522.023C631.674,524.687 612.059,519.602 605.642,541.032C599.225,562.463 603.534,561.378 599.228,585.35C594.922,609.322 589.323,584.919 577.84,617.504C566.5,626.978 566.787,620.518 556.739,631.428C546.69,642.337 547.265,646.787 540.805,651.524C534.345,656.261 521.857,654.682 515.254,663.582C508.651,672.482 508.462,679.004 498.867,681.413C489.272,683.822 466.362,686.899 466.362,686.899C466.362,686.899 455.108,706.789 452.955,718.56C450.802,730.33 447.625,744.552 456.094,752.877C464.563,761.203 476.621,760.485 478.917,766.658C481.214,772.83 478.63,779.864 484.516,781.874C490.401,783.883 496.717,785.606 491.406,790.343C486.095,795.08 480.496,797.52 484.372,812.018C488.248,826.516 483.798,830.105 482.793,833.55C481.788,836.995 476.477,839.722 479.061,842.593C481.645,845.464 485.294,842.347 485.808,846.469C486.413,851.321 496.901,868.544 504.881,871.187C512.862,873.83 504.914,879.429 509.55,895.684C514.186,911.939 517.377,912.3 516.233,918.02C515.089,923.739 478.966,943.185 476.136,947.761C473.307,952.337 474.17,976.451 476.555,980.871C478.94,985.29 485.558,984.046 486.75,992.324C487.943,1000.6 488.083,999.34 495.239,1007.34C502.394,1015.33 500.851,1014.28 507.515,1017.37C514.18,1020.46 536.278,1012.81 543.082,1016.04C549.887,1019.26 614.531,1077.15 613.717,1094.49C612.903,1111.83 615.269,1112.59 611.781,1120.7C608.293,1128.8 603.528,1127.38 603.882,1131.67C604.6,1140.39 618.757,1145.42 622.553,1156.09C626.348,1166.76 620.604,1182.87 623.989,1191.79C627.374,1200.72 663.536,1240.93 668.665,1257.75C673.794,1274.58 671.64,1284.22 675.231,1286.99C678.821,1289.76 681.461,1290.05 681.508,1293.35C681.555,1296.64 676.735,1303.43 677.972,1308.15C679.209,1312.86 677.311,1317.3 680.782,1319.3C684.253,1321.3 691.406,1315.9 693.615,1319.86C695.824,1323.82 693.475,1327.61 697.051,1330.8C700.627,1333.99 710.235,1329.22 707.85,1339.18C705.466,1349.14 705.868,1343.99 704.847,1351.95C703.826,1359.92 718.391,1362.98 718.357,1370.64C718.323,1378.29 713.1,1385.68 717.183,1389.56C721.267,1393.44 837.311,1403.32 870.562,1448.6C888.688,1457.54 917.619,1452.55 930.712,1458.5C943.804,1464.45 976.451,1483.84 981.892,1497.44C1007.74,1504.75 1032.9,1500.5 1046.67,1506.79C1060.45,1513.09 1077.45,1516.14 1087.48,1522.95C1097.52,1529.75 1106.36,1536.04 1112.31,1540.8C1118.26,1545.56 1137.47,1539.1 1143.08,1543.52C1148.69,1547.94 1147.26,1547.77 1149.95,1550.94C1152.64,1554.12 1172.64,1549.69 1177.44,1551.66C1182.25,1553.64 1189.66,1561.57 1193.02,1561.47C1196.39,1561.38 1195.66,1554.26 1197.54,1554.4C1199.41,1554.55 1205.28,1556.69 1206.62,1553.08C1207.97,1549.48 1206.38,1538.13 1216.29,1538.85C1226.19,1539.58 1229.76,1552.55 1233.93,1556.81C1238.11,1561.06 1246.57,1557.94 1246.81,1560.34C1247.05,1562.75 1244.07,1569.04 1249.46,1572.89C1254.84,1576.74 1262.1,1573.71 1263.4,1579.91C1264.7,1586.11 1265.13,1587.02 1267.29,1588.94C1269.45,1590.87 1279.75,1590.28 1286.29,1608.25C1292.82,1626.23 1294.15,1632.41 1293.9,1635.78C1293.65,1639.14 1288.55,1642.07 1291.18,1645.48C1293.8,1648.9 1298.75,1647.76 1299.79,1653.7C1300.83,1659.64 1297.57,1659.32 1298.46,1666.5C1299.35,1673.68 1301.58,1671.21 1301.63,1678.43C1301.68,1685.66 1294.6,1685.91 1295.04,1689.62C1295.49,1693.34 1301.38,1693.96 1301.68,1700.15C1301.97,1706.34 1298.01,1706.93 1298.31,1710.69C1298.61,1714.45 1304.89,1714.31 1305.99,1719.7C1307.07,1725.1 1303.71,1727.53 1304.85,1730.3C1305.99,1733.07 1318.49,1739.14 1317.74,1749.38C1317,1759.63 1310.81,1757.9 1310.56,1761.37C1310.32,1764.83 1311.83,1768.99 1310.87,1775.14C1309.91,1781.3 1304.86,1783.03 1305.25,1791.45C1305.63,1799.86 1330.99,1819.43 1333.3,1826.98C1335.61,1834.52 1332.05,1836.02 1334.21,1840.63C1336.38,1845.25 1350.97,1842.36 1355.11,1851.88C1359.24,1861.4 1353.13,1872.7 1358.23,1879.24C1363.33,1885.78 1424.39,1874.22 1437.06,1882.16C1449.73,1890.1 1457.92,1894.2 1462.88,1894.31C1467.84,1894.42 1476.25,1873.51 1482.28,1872.86C1488.32,1872.21 1493.39,1868.77 1496.46,1865.86C1499.54,1862.96 1502.5,1856.17 1508.54,1855.71C1514.57,1855.24 1535.81,1855.01 1537.38,1855.77C1538.95,1856.52 1574,1900.11 1583.23,1901.15C1592.46,1902.2 1632.19,1900.83 1634.07,1901.94C1635.96,1903.06 1633.49,1904.75 1635.38,1905.33C1637.27,1905.91 1647.05,1906.09 1648.6,1905.7C1649.49,1905.48 1647.87,1901.62 1649.85,1901.86C1651.83,1902.1 1669.72,1901.78 1670.99,1901.78C1672.26,1901.78 1684.13,1885.47 1686.92,1885.38C1689.42,1885.31 1706.58,1884.82 1708.51,1885.16C1710.44,1885.5 1728.41,1901.51 1729.95,1901.7C1731.49,1901.89 1755.61,1901.99 1757.14,1901.8C1758.68,1901.61 1758.8,1897.95 1759.65,1897.99C1760.49,1898.03 1778.51,1898.14 1779.04,1897.49C1779.58,1896.83 1797.33,1884.73 1800.41,1885C1803.49,1885.27 1828.39,1886.5 1829.7,1884.92C1831,1883.34 1863.95,1857.32 1865.22,1852.32C1866.49,1847.32 1865.88,1841.08 1868.15,1839.27C1870.42,1837.46 1870.63,1831.25 1879.52,1829.9C1888.41,1828.55 1889.64,1829.09 1891.87,1827.71C1894.11,1826.32 1896.45,1823.55 1901.46,1822.9C1906.46,1822.24 1921.59,1821.59 1923.59,1822.28C1925.59,1822.97 1939.95,1849.26 1946.49,1849.41C1953.03,1849.57 1974.16,1836.64 1978.82,1832.94C1983.48,1829.25 2042.21,1831.89 2043.68,1831.83C2045.15,1831.77 2079.14,1822.17 2084.62,1818.31C2090.09,1814.45 2101.12,1799.38 2109.92,1796.78C2118.71,1794.18 2143.39,1793.31 2151.38,1788.2C2159.36,1783.08 2165.82,1773.39 2177.58,1770.88C2189.33,1768.37 2202.52,1760.56 2210.41,1752.49C2218.31,1744.41 2231.37,1726.74 2238.36,1727.46C2245.36,1728.17 2249.22,1726.47 2250.66,1726.83C2252.09,1727.19 2263.75,1716.24 2264.38,1713.19C2265.01,1710.14 2264.92,1698.48 2264.83,1696.05C2264.74,1693.63 2262.06,1692.65 2261.56,1692.71C2261.06,1692.76 2258.24,1693.65 2258.22,1695.89C2258.19,1698.13 2258.4,1701.89 2256.4,1701.63C2255.29,1701.48 2248.6,1696.77 2244.01,1690.74C2240.33,1685.89 2238.45,1679.55 2238.25,1678.98C2237.91,1678.01 2237.38,1676.33 2236.7,1677.58C2235.45,1679.89 2234.04,1686.83 2234.09,1687.92C2234.17,1689.6 2223.75,1686.67 2222.02,1684.22C2220.3,1681.78 2225.19,1667.15 2221.93,1665.57C2218.67,1663.99 2205.15,1657.51 2203.99,1659.53C2202.84,1661.54 2199.97,1676.31 2197.47,1671.27C2194.98,1666.24 2201.07,1638.62 2193.06,1634.5C2185.05,1630.37 2160.22,1630.76 2160.36,1624.96C2160.51,1619.15 2159.02,1617.33 2163.86,1616.71C2168.7,1616.09 2176.36,1615.72 2172.34,1612.49C2168.33,1609.26 2161.23,1610.09 2164.51,1607.25C2167.79,1604.41 2167.99,1595.89 2167.45,1592.03C2167.17,1590.03 2164.73,1576.99 2162.41,1567.26C2160.24,1558.12 2147.42,1537.93 2141.16,1535.46C2128.24,1530.37 2126.06,1530.03 2125.81,1528.22C2125.57,1526.4 2140.4,1524.99 2140.94,1522.64C2141.48,1520.29 2144.83,1512.47 2144.68,1508.56C2144.53,1504.64 2142.18,1494.6 2139.44,1491.32C2136.7,1488.04 2131.88,1481.04 2129.63,1482.37C2127.38,1483.69 2121.5,1500.97 2119.64,1494.41C2117.78,1487.85 2118.47,1480.21 2118.22,1474.04C2118.1,1474.02 2115.46,1477 2114.13,1473.14C2112.8,1469.28 2117.82,1469.11 2118.07,1468.82C2118.32,1468.53 2118.91,1459.04 2117.78,1457.5C2116.65,1455.95 2111.75,1450.04 2110.19,1450.58C2108.62,1451.12 2102.26,1456.17 2100.83,1454.21C2099.4,1452.24 2098.19,1450.8 2098.37,1449.95C2098.55,1449.1 2102.4,1444.31 2104.64,1444.13C2106.88,1443.95 2118.02,1445.61 2120.39,1451.38C2122.77,1457.16 2124.65,1456.09 2126.75,1454.79C2128.86,1453.49 2131.23,1450.85 2130.91,1449.37C2130.6,1447.89 2123.62,1438.18 2121.16,1435.72C2118.69,1433.26 2116.05,1432.86 2114.06,1427.22C2112.07,1421.58 2115.82,1419.5 2112.86,1417.83C2109.9,1416.17 2103.78,1415.29 2102.12,1409.23C2100.45,1403.17 2104.06,1392.81 2101.42,1389.21C2098.79,1385.6 2090.78,1383.93 2089.52,1379.9C2088.25,1375.87 2092.07,1368.1 2091.66,1362.53C2091.26,1356.95 2085.35,1344.17 2086.08,1336.61C2086.8,1329.04 2087.21,1329.67 2087.89,1329.45C2088.57,1329.22 2092.9,1326.73 2091.81,1324.6C2090.72,1322.47 2085.42,1316.62 2086.92,1314C2088.41,1311.37 2096.61,1319.75 2099.88,1319.57C2103.14,1319.39 2110.16,1318.48 2110.93,1315.04C2111.7,1311.59 2112.07,1307.61 2108.89,1306.84C2105.72,1306.07 2100.99,1303.28 2102.44,1300.42C2103.89,1297.57 2113.67,1292.95 2113.67,1289.87C2113.67,1286.79 2114.53,1281.17 2113.9,1281.03C2113.27,1280.9 2102.71,1280.49 2102.12,1281.49C2101.53,1282.48 2097.05,1293.67 2095.91,1289.78C2094.78,1285.88 2097.05,1279.58 2094.73,1278.95C2092.42,1278.31 2080.12,1277.79 2084.34,1270.72C2088.55,1263.65 2100.15,1256.22 2099.47,1251.92C2098.79,1247.62 2091,1237.22 2092.49,1228.29C2093.99,1219.36 2101,1212.55 2102.32,1201.5C2103.63,1190.44 2106.21,1190.12 2108.8,1187.54C2111.38,1184.96 2107.8,1184.71 2108.09,1179.51C2108.37,1174.32 2112.57,1176.44 2114.18,1172.52C2115.79,1168.6 2111.3,1161.75 2116.82,1158.92C2122.35,1156.08 2131.18,1160.01 2132.98,1155.38C2134.77,1150.75 2139.83,1142.77 2139.36,1138.37C2138.88,1133.98 2137.14,1111.71 2131.8,1108.22C2126.46,1104.72 2101.64,1097 2100.93,1093.41C2100.22,1089.82 2104.8,1088.5 2102.92,1085.9C2101.03,1083.3 2092.69,1081.55 2092.41,1076.93C2092.12,1072.3 2095.19,1067.2 2092.26,1064.64C2089.34,1062.1 2065.15,1034.86 2059.48,1033.96C2053.81,1033.06 2049.84,1034.36 2047.25,1031.15C2044.65,1027.94 2042.33,1020.24 2038.7,1018.3C2035.06,1016.37 2027.17,1016.46 2026.84,1011.78C2026.51,1007.11 2030.55,995.301 2030.41,991.759C2030.27,988.216 2032.96,977.495 2030.17,976.503C2027.38,975.511 2021.42,975.52 2019.91,969.591C2018.41,963.663 2016.56,956.808 2016.96,949.007C2017.37,941.207 2019.64,940.118 2021.16,934.394C2022.68,928.67 2020.61,921.679 2024.56,916.462C2028.51,911.245 2038.01,907.471 2039.17,900.43C2040.34,893.389 2038.64,889.59 2043.2,882.498C2047.76,875.407 2050.14,878.598 2051.51,871.152C2052.87,863.706 2051.48,861.527 2055.28,855.449C2059.08,849.37 2060.65,848.459 2061.56,844.052C2062.47,839.645 2062.49,833.736 2064.62,829.126C2066.75,824.517 2068.52,824.466 2067.16,819.654C2065.79,814.842 2065.94,815.855 2068.62,812.157C2071.31,808.459 2074.09,806.788 2073.54,802.381C2072.98,797.974 2073.13,793.767 2069.64,789.208C2066.14,784.649 2070.55,784.194 2071.26,783.484C2071.97,782.775 2076.22,780.901 2075.71,778.115C2075.21,775.329 2072.68,771.378 2074.5,769.099C2076.32,766.819 2089.57,759.728 2089.57,753.7C2089.57,747.672 2084.58,747.697 2083.77,743.645C2082.96,739.592 2085.24,731.893 2082.81,728.854C2080.38,725.815 2048.99,702.007 2047.93,701.349C2046.87,700.69 1850.3,550.034 1848.35,547.49C1846.39,544.947 1846.95,540.974 1845.08,538.262C1843.22,535.549 1844.11,533.148 1845.84,531.903C1847.57,530.658 1849,529.724 1848.86,528.301C1848.73,526.878 1825.83,517.095 1824.63,516.695C1823.43,516.294 1808.95,510.627 1809.11,504.954C1809.26,499.282 1822.4,492.521 1822.16,488.247C1821.93,483.974 1820.63,441.216 1814.85,431.629C1809.07,422.043 1571.07,285.445 1568.83,290.881C1566.59,296.316 1565.64,295.797 1565.47,297.094C1565.3,298.392 1584.58,308.51 1584.93,316.726C1585.27,324.942 1585.62,327.71 1585.53,329.526C1585.45,331.342 1561.14,375.794 1555.78,375.016C1550.42,374.238 1542.03,372.335 1540.99,367.665C1539.96,362.995 1537.02,338.693 1542.38,335.32C1547.74,331.947 1562.53,328.574 1561.14,323.818C1559.76,319.061 1554.66,318.023 1555,311.537C1555.35,305.051 1560.71,290.003 1556.73,285.506C1552.76,281.009 1228.2,94.718 1224.62,105.92C1221.04,117.123 1209.99,136.845 1205.85,139.236C1205.85,139.236 1193.63,143.782 1193.47,147.542C1193.31,151.303 1210.2,156.228 1207.03,158.559C1203.85,160.889 1184.62,158.347 1183.83,162.902C1183.03,167.456 1179.17,172.382 1180.97,175.401C1182.77,178.42 1203.42,189.012 1197.44,189.489C1191.45,189.965 1158.25,178.42 1155.33,184.14C1152.42,189.86 1156.05,190.47 1154.34,193.952C1152.63,197.435 1147.12,196.232 1148.7,199.397C1150.28,202.563 1166.49,208.831 1163.77,212.82C1161.05,216.809 1161.24,217.885 1160.35,218.328C1159.46,218.771 1135.91,213.2 1137.49,217.695C1139.08,222.19 1152.18,229.281 1148.76,231.624C1145.35,233.967 1138.33,231.41 1138.2,234.132C1138.07,236.855 1129.9,244.262 1126.68,243.439C1123.45,242.616 1114.9,234.196 1111.8,235.589C1108.69,236.981 1090.11,248.972 1092.83,253.594C1095.56,258.216 1091.76,259.229 1095.37,260.495C1098.98,261.762 1099.36,255.81 1101.83,255.494C1104.29,255.177 1120.19,253.594 1121.26,257.52C1122.34,261.445 1120.57,263.788 1123.86,265.181C1127.15,266.574 1133.42,261.635 1133.86,266.89C1134.31,272.145 1135.13,275.311 1131.39,275.627C1127.66,275.944 1115.25,267.08 1112.27,267.017C1109.3,266.953 1105.24,285.948 1099.86,281.895C1094.48,277.843 1082.86,271.385 1080.08,276.64C1077.29,281.895 1076.4,286.581 1077.86,288.543C1079.32,290.506 1095.59,284.428 1097.17,290.38C1098.75,296.331 1096.66,298.23 1100.78,298.8C1104.89,299.37 1106.8,298.737 1108.38,298.737C1109.96,298.737 1106.86,295.128 1111.8,295.191C1116.74,295.255 1119.9,294.875 1121.29,296.774C1122.69,298.674 1122.88,298.42 1126.11,298.547C1129.34,298.674 1136.82,298.61 1136.82,298.61C1136.82,298.61 1139.36,292.563 1145.9,292.425C1152.45,292.286 1158.63,293.07 1160.43,290.719C1162.22,288.368 1159.46,282.33 1163.93,282.33C1168.4,282.33 1176.84,281.776 1177.67,282.191C1178.5,282.606 1189.74,285.741 1189.47,298.694C1189.19,311.647 1188.08,310.356 1187.3,311.601C1186.52,312.846 1172.37,315.329 1172.37,315.329C1172.37,315.329 1162.73,316.118 1155.95,322.48C1149.18,328.841 1147.52,329.025 1145.67,329.302C1143.83,329.579 1136.55,329.394 1135.16,331.745C1133.78,334.096 1134.78,337.045 1133.91,338.704C1133.03,340.364 1121.55,340.179 1119.76,341.839C1117.96,343.498 1113.64,345.273 1115.07,348.085C1116.5,350.897 1119.87,354.031 1117.61,356.843C1115.35,359.655 1111.71,360.439 1109.82,359.471C1107.93,358.503 1106.04,346.979 1100.69,347.901C1095.34,348.823 1095.02,361.637 1091.52,358.641C1088.02,355.645 1087.15,350.119 1083.88,350.672C1080.6,351.225 1079.27,357.724 1075.16,354.313C1071.06,350.902 1063.87,333.708 1053.45,333.385C1043.03,333.063 1041.63,333.699 1041.63,333.699C1041.63,333.699 1034.76,336.006 1030.47,341.353C1026.18,346.7 1023.65,349.742 1023.79,359.192C1023.92,368.642 1023.68,376.421 1023.68,376.421C1023.68,376.421 1022.98,385.006 1031.97,395.516C1040.95,406.026 1049.3,405.75 1048.93,410.867C1048.56,415.983 1041.09,416.398 1038.79,416.214C1036.48,416.029 1034.96,415.568 1030.54,411.742C1026.11,407.916 1026.85,406.81 1025.42,406.902C1023.99,406.994 1021.64,411.097 1019.38,414.923C1017.12,418.749 1015.28,421.146 1013.02,424.419C1010.76,427.692 1009.24,433.408 1006.43,431.656C1003.62,429.905 1003.62,424.419 1002.51,421.607C1001.4,418.795 999.145,415.246 1001.22,412.48C1003.29,409.714 1006.06,409.668 1009.19,406.856C1012.33,404.044 1012.61,405.796 1014.77,401.693C1016.94,397.591 1018.92,393.119 1018.97,390.4C1019.01,387.68 1016.66,386.85 1014.63,382.563C1012.61,378.276 1012.37,378.046 1013.2,374.358C1014.03,370.67 1016.52,371.177 1016.66,366.844C1016.8,362.511 1018.16,359.031 1016.04,354.375C1013.92,349.719 1013.73,348.429 1010.6,348.198C1007.47,347.968 1007.51,353.868 1005.81,353.914C1004.1,353.96 997.324,352.946 994.143,349.351C990.963,345.755 989.441,342.851 988.151,340.638C986.86,338.426 986.906,333.401 985.247,332.802C983.587,332.203 978.931,333.632 978.102,339.993C977.272,346.354 972.368,354.165 968.911,358.498C965.454,362.831 963.38,361.541 962.089,361.218C960.798,360.895 958.217,356.009 958.539,353.52C958.862,351.031 963.149,347.205 961.951,344.9C960.752,342.595 958.032,342.733 956.88,343.886C955.727,345.038 951.852,347.231 949.296,346.946C946.74,346.662 940.491,349.171 936.137,342.639C931.782,336.106 935.521,333.834 935.568,333.124C935.616,332.414 937.083,326.261 934.669,323.941C932.255,321.622 922.93,312.983 919.948,313.172C916.965,313.361 911.948,321.03 910.054,323.775C908.161,326.521 906.267,331.775 902.054,332.627C897.841,333.479 892.492,332.817 890.788,335.941C889.084,339.065 888.753,346.733 890.978,348.39C893.202,350.047 895.995,350.804 894.859,351.988C893.723,353.171 872.138,352.224 871.806,354.781C871.475,357.337 871.381,362.604 872.721,364.868C874.061,367.132 873.183,369.119 872.998,370.367C872.813,371.615 864.219,368.565 866.067,372.77C867.915,376.975 873.183,381.919 873.968,387.325C874.754,392.731 874.661,395.596 873.876,397.167C873.09,398.738 868.239,395.342 865.42,387.671C862.601,380.001 862.694,375.889 858.581,376.12C854.469,376.351 855.07,382.219 853.268,384.714C851.465,387.209 849.294,389.058 848.462,388.318C847.63,387.579 845.69,382.635 844.627,383.975C843.564,385.315 841.67,392.061 841.716,398.068C841.762,404.075 839.637,404.583 838.759,404.491C837.881,404.398 835.894,404.907 834.184,395.249C832.474,385.592 833.861,384.483 834.646,382.404C835.432,380.325 841.439,377.46 842.132,375.149C842.825,372.839 843.934,370.39 843.657,369.882C843.379,369.373 840.283,369.789 837.557,369.558C834.831,369.327 827.715,370.39 824.665,366.093C821.616,361.796 821.893,358.931 823.002,358.007C824.111,357.082 834.461,356.205 834.554,352.231C834.646,348.257 833.823,339.852 832.203,335.711C830.583,331.571 829.412,324.865 826.037,324.415C822.662,323.965 820.366,327.97 817.576,328.601C814.786,329.231 809.115,329.096 808.755,327.385C808.395,325.675 807.99,318.789 810.78,312.579C813.571,306.368 817.554,295.342 818.364,292.462C819.174,289.581 820.479,282.92 819.714,280.4C818.949,277.88 813.908,277.115 812.648,279.185C811.388,281.255 804.592,287.196 802.027,286.701C799.462,286.206 797.616,280.76 798.561,276.44C799.507,272.119 801.847,268.924 807.878,263.928C813.908,258.933 818.679,253.172 820.254,248.312C821.829,243.451 825.79,237.96 825.519,231.39C825.249,224.819 826.442,214.693 827.297,212.893C828.152,211.092 829.862,206.817 829.277,201.146C828.692,195.476 829.075,194.058 830.425,191.178C831.775,188.297 837.041,187.217 838.031,184.112C839.021,181.007 838.211,178.396 839.696,171.331C841.181,164.265 844.107,165.12 845.097,159.989C846.087,154.859 843.07,152.941 845.476,145.81C847.882,138.679 849.938,137.673 850.288,131.155C850.638,124.636 850.113,118.074 848.188,113.175C846.263,108.275 843.44,107.233 843.44,107.233Z" style="fill:none;stroke:rgb(254,251,222);stroke-width:28px;"/>
</svg>
