<?xml version="1.0" encoding="UTF-8" standalone="no"?><!DOCTYPE svg PUBLIC "-//W3C//DTD SVG 1.1//EN" "http://www.w3.org/Graphics/SVG/1.1/DTD/svg11.dtd"><svg width="100%" height="100%" viewBox="0 0 1366 1024" version="1.1" xmlns="http://www.w3.org/2000/svg" xmlns:xlink="http://www.w3.org/1999/xlink" xml:space="preserve" xmlns:serif="http://www.serif.com/" style="fill-rule:evenodd;clip-rule:evenodd;stroke-linejoin:round;stroke-miterlimit:1.41421;"><rect id="Artboard1" x="0" y="0" width="1366" height="1024" style="fill:none;"/><g id="Artboard11" serif:id="Artboard1"><path d="M438.892,405.691c0,0 -55.596,62.215 -5.385,162.612c24.421,48.831 153.944,135.287 153.944,135.287l-34.715,-219.423c0,0 -49.613,-13.96 -76.912,-25.507c-46.843,-19.813 -36.932,-52.969 -36.932,-52.969Z" style="fill:#a9c500;"/><path d="M574.168,390.725c0,0 -19.707,-19.62 -64.792,-25.691c-20.561,-2.769 -52.075,16.616 -58.713,29.257c-7.032,13.388 4.109,38.227 23.831,48.988c18.717,10.212 78.727,29.483 78.727,29.483c0,0 -3.502,-15.428 4.781,-45.899c1.903,-7.003 16.166,-36.138 16.166,-36.138Z" style="fill:#61a627;"/><path d="M587.394,400.074c0,0 -9.332,15.627 -16.591,40.886c-1.387,4.827 -2.852,16.159 -1.767,31.129c5.17,71.359 34.651,231.501 34.651,231.501c0,0 72.813,-68.465 97.114,-101.684c21.472,-29.352 41.546,-69.457 48.693,-97.632c5.873,-23.153 -4.354,-83.669 -4.354,-83.669c0,0 -1.877,43.298 -33.683,37.653c-14.046,-2.494 -50.272,-16.611 -79.711,-31.598c-24.669,-12.558 -44.352,-26.586 -44.352,-26.586Z" style="fill:#61a627;"/><path d="M607.147,301.615c1.539,-8.037 12.166,-31 34.178,-46.464c21.626,-15.193 30.876,-17.311 46.69,-16.793c15.814,0.519 28.531,18.034 29.95,36.109c1.419,18.074 -0.929,54.867 -4.215,60.104c-3.286,9.031 -31.819,16.24 -30.75,30.459c1.069,14.218 51.282,36.338 50.57,51.804c-0.713,15.465 -8.563,29.383 -16.841,29.982c-4.788,0.347 -48.188,-14.805 -80.756,-31.456c-23.742,-12.138 -39.964,-27.191 -39.964,-27.191c0,0 25.992,-13.819 27.241,-34.502c1.25,-20.683 -17.641,-44.016 -16.103,-52.052Z" style="fill:#61a627;"/><path d="M660.183,228.868l-85.838,0.283c0,0 -22.755,9.624 -23.238,25.082c-0.378,12.094 45.077,36.381 45.077,36.381c0,0 10.977,-20.034 20.194,-31.197c9.857,-14.224 43.805,-30.549 43.805,-30.549Z" style="fill:#a9c500;"/><path d="M696.342,215.921l-118.542,0.176c0,0 7.411,-35.146 58.642,-34.816c51.232,0.33 59.9,34.64 59.9,34.64Z" style="fill:#acc802;"/></g></svg>